<svg width="60" height="60" viewBox="0 0 60 60" fill="none" xmlns="http://www.w3.org/2000/svg">
<circle cx="30" cy="30" r="29.5" fill="#FEE196" stroke="black"/>
<g clip-path="url(#clip0)">
<path d="M17.047 35.1063C17.2758 35.3351 17.6468 35.3351 17.8755 35.1063C18.1044 34.8774 18.1044 34.5064 17.8755 34.2777L16.9834 33.3855C16.7545 33.1567 16.3835 33.1567 16.1548 33.3855C15.9259 33.6143 15.9259 33.9853 16.1548 34.2141L17.047 35.1063Z" fill="black"/>
<path d="M27.1614 25.8205C27.3903 25.5917 27.3903 25.2206 27.1614 24.9918L26.2692 24.0996C26.0404 23.8708 25.6694 23.8708 25.4406 24.0996C25.2118 24.3285 25.2118 24.6995 25.4406 24.9283L26.3328 25.8205C26.5615 26.0492 26.9326 26.0493 27.1614 25.8205Z" fill="black"/>
<path d="M20.8937 30.662C20.571 30.6398 20.2912 30.8835 20.269 31.2064C20.2468 31.5292 20.4905 31.8089 20.8134 31.8311C21.6465 31.8881 22.4612 31.5828 23.0496 30.9945C23.6384 30.4056 23.9434 29.5906 23.8862 28.7583C23.8641 28.4354 23.5847 28.1917 23.2616 28.2139C22.9387 28.236 22.695 28.5157 22.7171 28.8385C22.751 29.3328 22.5702 29.8166 22.2209 30.1659C21.8717 30.5151 21.3877 30.696 20.8937 30.662Z" fill="black"/>
<path d="M10.5857 36.3732H10.5866C10.9102 36.3727 11.1722 36.1101 11.1717 35.7865C11.1671 32.3973 12.1724 29.1375 14.0817 26.3554C17.0171 22.0011 22.1651 19.116 27.818 19.116C32.0966 19.116 36.3317 20.7338 39.5896 23.9916C40.2569 24.6589 40.6862 25.5085 40.8232 26.4363C41.0308 27.8421 40.5554 29.2119 39.5896 30.1777L22.2331 47.5339C20.5239 49.2431 17.757 49.244 16.047 47.5339C13.4595 44.9465 11.8282 41.6674 11.3293 38.0509C11.2851 37.7304 10.9899 37.5063 10.6689 37.5506C10.3483 37.5948 10.1242 37.8905 10.1685 38.211C10.7025 42.0826 12.4488 45.5929 15.2184 48.3624C17.3857 50.5299 20.8939 50.5302 23.0617 48.3624C23.7596 47.6645 48.374 23.0501 48.374 23.0501C50.5415 20.8827 50.5418 17.3746 48.374 15.2068C45.4494 12.2822 41.5749 10.457 37.4642 10.0676C37.1421 10.037 36.8562 10.2734 36.8256 10.5956C36.7951 10.9177 37.0316 11.2037 37.3537 11.2342C41.1935 11.5981 44.8131 13.3032 47.5454 16.0356C49.2549 17.7451 49.2553 20.5118 47.5454 22.2217L46.5499 23.2173C46.4914 21.8707 45.7038 20.6692 44.4746 20.113V20.1129C44.4552 18.1905 43.2995 16.5053 41.6221 15.7526C41.5793 15.1724 41.3269 14.6575 40.9447 14.2752C40.9446 14.2751 40.9444 14.275 40.9442 14.2749C40.5068 13.8379 39.9196 13.5908 39.2923 13.5908C39.0392 13.5908 38.7926 13.6314 38.5591 13.7083C37.1762 12.4164 35.2004 12.0438 33.4549 12.743C33.0719 12.3677 32.6346 12.0628 32.1592 11.8364C33.1753 11.4609 34.1381 11.2493 35.112 11.1826C35.4348 11.1605 35.6786 10.8808 35.6565 10.558C35.6344 10.2352 35.3555 9.99134 35.0319 10.0134C33.4769 10.12 31.9617 10.5531 30.2768 11.3719C30.2097 11.3691 30.1424 11.367 30.0749 11.367C28.8039 11.367 27.5945 11.8639 26.6946 12.7437C24.946 12.0428 22.9608 12.4232 21.5899 13.7095C20.1395 13.2332 18.6377 14.2457 18.5275 15.7541C16.8117 16.5261 15.6957 18.2292 15.6751 20.1095C15.1092 20.3506 14.6025 20.6928 14.1648 21.1306C12.9027 22.3927 12.4421 24.2506 12.9492 25.9399C11.014 28.8604 9.99495 32.2589 9.9998 35.7881C10.0003 36.1114 10.2625 36.3732 10.5857 36.3732ZM29.5549 16.6982C30.0091 16.244 30.7482 16.244 31.2024 16.6982C31.4225 16.9183 31.5437 17.2109 31.5437 17.522C31.5437 17.8014 31.4459 18.0656 31.2667 18.2761C30.6271 18.1513 29.978 18.062 29.3217 18.0075C29.123 17.574 29.2073 17.0458 29.5549 16.6982ZM40.116 15.1036C40.1204 15.1134 40.5227 15.465 40.4464 16.0734V16.0734C40.3739 16.6516 39.8856 17.0924 39.2923 17.0924C38.8869 17.0924 38.5293 16.8867 38.3195 16.5688C38.3191 16.5681 38.3188 16.5675 38.3184 16.567C37.9572 16.0174 38.1183 15.2585 38.7153 14.9171C39.1736 14.655 39.7493 14.7372 40.116 15.1036ZM20.8573 14.7629C21.4805 14.7629 22.0217 15.2659 22.0217 15.9274C22.0217 16.5306 21.5646 17.0297 20.9689 17.0866C20.2607 17.1542 19.6922 16.5821 19.6922 15.9274C19.6923 15.2794 20.2171 14.7629 20.8573 14.7629ZM14.9933 21.9589C15.404 21.5482 15.8957 21.2484 16.4545 21.0679C16.6989 20.9889 16.8817 20.7525 16.8579 20.4506C16.7438 18.995 17.5044 17.6312 18.7542 16.948C19.14 17.7414 19.9482 18.2632 20.8574 18.2632C22.8682 18.2632 23.9396 15.8798 22.606 14.3771C23.6324 13.5527 25.0272 13.3354 26.2658 13.834C26.3674 13.8745 26.4697 13.9208 26.5697 13.9719C26.8154 14.0973 27.1153 14.0344 27.2898 13.8207L27.2911 13.8191C27.9885 13.0051 29.0027 12.5384 30.0749 12.5384C31.1389 12.5384 32.1577 13.0007 32.8586 13.8191C32.8667 13.8256 33.0058 14.0208 33.2846 14.0349C33.4243 14.0417 33.5073 14.0025 33.5861 13.9684C33.5861 13.9684 33.5862 13.9684 33.5862 13.9684C34.8371 13.3331 36.3857 13.4466 37.5433 14.3774C37.1641 14.8046 36.9554 15.3508 36.9554 15.9274C36.9554 16.5425 37.1919 17.1211 37.6213 17.5602C38.0604 18.0087 38.651 18.2643 39.2924 18.2643C40.2255 18.2643 41.0197 17.721 41.3956 16.9476C42.6532 17.6367 43.4056 19.0028 43.2917 20.4504C43.2682 20.7474 43.4456 20.987 43.6946 21.0677C44.5945 21.3591 45.1413 22.0208 45.3214 22.8316C45.5052 23.6584 45.2589 24.5081 44.6628 25.1042L42.0013 27.7657C42.2094 26.0571 41.632 24.3763 40.4181 23.1627C38.2139 20.9585 35.5022 19.3702 32.4749 18.5563C32.632 18.2385 32.7156 17.8867 32.7156 17.5219C32.7156 16.8977 32.4725 16.3109 32.0311 15.8695C31.1199 14.9583 29.6374 14.9584 28.7263 15.8695C28.1706 16.4252 27.9503 17.2108 28.0849 17.9472C27.996 17.9459 27.9071 17.944 27.818 17.944C22.6667 17.944 17.5456 20.1535 13.9182 24.6124C13.9036 23.6374 14.2796 22.6726 14.9933 21.9589Z" fill="black"/>
</g>
<defs>
<clipPath id="clip0">
<rect width="40" height="40" fill="white" transform="translate(10 10)"/>
</clipPath>
</defs>
</svg>
