<svg width="60" height="60" viewBox="0 0 60 60" fill="none" xmlns="http://www.w3.org/2000/svg">
<circle cx="30" cy="30" r="29.5" fill="#FFC2C2" stroke="black"/>
<path d="M45.6527 36.1247C45.614 36.06 45.5733 35.998 45.5327 35.9434C45.1287 35.3787 44.528 35.0054 43.8427 34.8927C43.1607 34.78 42.4693 34.9406 41.9067 35.3447L34.4533 40.6667H26.6667C26.2993 40.6667 26 40.368 26 40.0001C26 39.6321 26.2993 39.3334 26.6667 39.3334H31C32.2867 39.3334 33.3334 38.2868 33.3334 37.0001C33.3334 36.9927 33.3327 36.9314 33.3321 36.9248C33.2907 35.6387 32.206 34.6361 30.9467 34.6668H22.2741C21.5054 34.6734 20.7567 34.9488 20.1667 35.4408L16.9067 38.1541C16.7547 38.2815 16.6667 38.4688 16.6667 38.6668V46.6668C16.6667 47.0355 16.9654 47.3334 17.3334 47.3334H33.8741C34.9567 47.3321 36.0114 46.9508 36.8448 46.2608L44.9268 39.5828C46.0247 38.8006 46.3434 37.282 45.6527 36.1247ZM44.116 38.526L35.9953 45.2334C35.3993 45.7267 34.6453 45.9987 33.8733 46H18V38.9793L21.0207 36.4646C21.3753 36.1693 21.824 36.0039 22.28 35.9999L30.968 35.9993C31.5207 35.9986 31.982 36.4166 32 37C32 37.5513 31.5514 38 31 38H26.6667C25.564 38 24.6667 38.8973 24.6667 40C24.6667 41.1027 25.564 42 26.6667 42H34.6667C34.8053 42 34.9407 41.9566 35.0553 41.876L42.6833 36.4287C42.958 36.2313 43.292 36.1547 43.6267 36.208C43.9606 36.2633 44.2527 36.4446 44.4533 36.7246C44.4733 36.752 44.4913 36.7799 44.5086 36.8086C44.846 37.3734 44.6893 38.1153 44.116 38.526Z" fill="black"/>
<path d="M17.3134 37.3334H10V38.6667H16.6466V48.6667H10V50H17.3134C17.6813 50 17.98 49.702 17.98 49.3334V38C17.98 37.6313 17.6813 37.3334 17.3134 37.3334Z" fill="black"/>
<path d="M13.3334 43.3334C12.2307 43.3334 11.3334 44.2307 11.3334 45.3334C11.3334 46.436 12.2307 47.3334 13.3334 47.3334C14.436 47.3334 15.3334 46.436 15.3334 45.3334C15.3334 44.2307 14.436 43.3334 13.3334 43.3334ZM13.3334 46C12.966 46 12.6667 45.7013 12.6667 45.3334C12.6667 44.9654 12.966 44.6667 13.3334 44.6667C13.7007 44.6667 14 44.9654 14 45.3334C14 45.7013 13.7007 46 13.3334 46Z" fill="black"/>
<path d="M49.3334 30.6666H10.6666C10.2987 30.6666 10 30.9646 10 31.3333C10 33.9059 12.0934 35.9999 14.6666 35.9999H45.3333C47.9059 35.9999 49.9999 33.9059 49.9999 31.3333C50 30.9647 49.702 30.6666 49.3334 30.6666ZM45.3334 34.6666H14.6666C13.0566 34.6666 11.71 33.5193 11.4006 32H48.5993C48.29 33.5193 46.9434 34.6666 45.3334 34.6666Z" fill="black"/>
<path d="M30 13.3334C20.4426 13.3334 12.6666 21.1094 12.6666 30.6667V31.3334C12.6666 31.702 12.9653 32 13.3333 32H46.6666C47.0353 32 47.3333 31.702 47.3333 31.3334V30.6667C47.3333 21.1093 39.558 13.3334 30 13.3334ZM14 30.6667C14 21.8446 21.178 14.6667 30 14.6667C38.822 14.6667 46 21.8446 46 30.6667H14Z" fill="black"/>
<path d="M19.0347 20.938C18.5687 21.4619 18.1367 22.0226 17.7507 22.6053L18.8621 23.3419C19.2141 22.8112 19.6074 22.2999 20.0314 21.8233L19.0347 20.938Z" fill="black"/>
<path d="M30 16C26.256 16.002 22.6913 17.4166 19.9634 19.9813L20.8767 20.9527C23.3567 18.6206 26.5974 17.3353 30.0007 17.3334L30 16Z" fill="black"/>
<path d="M32 10H28V11.3334H32V10Z" fill="black"/>
<path d="M30.6667 10.6666H29.3334V14H30.6667V10.6666Z" fill="black"/>
</svg>
