<svg width="60" height="60" viewBox="0 0 60 60" fill="none" xmlns="http://www.w3.org/2000/svg">
<circle cx="30" cy="30" r="29.5" fill="#CBDAF7" stroke="black"/>
<path d="M36.7151 35.6529C35.7674 35.6529 34.9964 34.9856 34.9964 34.1653C34.9964 33.345 35.7674 32.6777 36.7151 32.6777C37.6628 32.6777 38.4339 33.345 38.4339 34.1653C38.4339 34.5967 38.7837 34.9466 39.2151 34.9466C39.6465 34.9466 39.9964 34.5967 39.9964 34.1653C39.9964 32.7337 38.9296 31.53 37.4964 31.2032V30.7969C37.4964 30.3655 37.1465 30.0157 36.7151 30.0157C36.2837 30.0157 35.9339 30.3655 35.9339 30.7969V31.2032C34.5006 31.53 33.4339 32.7337 33.4339 34.1653C33.4339 35.8471 34.9058 37.2154 36.7151 37.2154C37.6628 37.2154 38.4339 37.8828 38.4339 38.7031C38.4339 39.5234 37.6628 40.1907 36.7151 40.1907C35.7674 40.1907 34.9964 39.5234 34.9964 38.7031C34.9964 38.2717 34.6465 37.9218 34.2151 37.9218C33.7837 37.9218 33.4339 38.2717 33.4339 38.7031C33.4339 40.1347 34.5006 41.3384 35.9339 41.6652V42.0027C35.9339 42.4341 36.2837 42.7839 36.7151 42.7839C37.1465 42.7839 37.4964 42.4341 37.4964 42.0027V41.6652C38.9296 41.3384 39.9964 40.1347 39.9964 38.7031C39.9964 37.0212 38.5244 35.6529 36.7151 35.6529Z" fill="black"/>
<path d="M45.272 31.0059C44.2514 29.4157 42.8136 28.1432 41.114 27.3261C40.725 27.1391 40.2582 27.3029 40.0713 27.6918C39.8844 28.0807 40.0481 28.5474 40.437 28.7343C43.3988 30.1581 45.3124 33.2002 45.3124 36.4844C45.3124 37.8897 44.966 39.2834 44.3108 40.5149C44.1081 40.8958 44.2526 41.3689 44.6335 41.5716C44.7504 41.6338 44.876 41.6633 44.9998 41.6633C45.2793 41.6633 45.5497 41.5128 45.6902 41.2488C46.4652 39.7923 46.8749 38.1447 46.8749 36.4844C46.8749 34.5344 46.3206 32.64 45.272 31.0059Z" fill="black"/>
<path d="M37.9431 26.3283L37.8906 26.3282C37.4592 26.3282 37.1093 26.678 37.1093 27.1094C37.1093 27.5409 37.4592 27.8907 37.8906 27.8907L37.9358 27.8908C37.9371 27.8908 37.9382 27.8908 37.9396 27.8908C38.3693 27.8908 38.7187 27.5434 38.7207 27.1132C38.7227 26.6817 38.3746 26.3303 37.9431 26.3283Z" fill="black"/>
<path d="M33.0005 44.2345C30.0388 42.8106 28.1251 39.7685 28.1251 36.4844C28.1251 35.0791 28.4715 33.6854 29.1268 32.4539C29.3294 32.073 29.185 31.5999 28.804 31.3972C28.4232 31.1946 27.95 31.339 27.7474 31.7199C26.9723 33.1766 26.5626 34.8241 26.5626 36.4844C26.5626 38.4344 27.1169 40.3288 28.1656 41.9629C29.1861 43.5531 30.6239 44.8256 32.3236 45.6427C32.4327 45.6952 32.548 45.72 32.6615 45.72C32.9525 45.72 33.2317 45.5568 33.3662 45.2771C33.553 44.8882 33.3894 44.4214 33.0005 44.2345Z" fill="black"/>
<path d="M35.547 45.0781L35.5018 45.078C35.0683 45.0772 34.7189 45.424 34.717 45.8556C34.715 46.287 35.0632 46.6385 35.4946 46.6405L35.547 46.6406C35.9784 46.6406 36.3282 46.2908 36.3282 45.8594C36.3282 45.428 35.9784 45.0781 35.547 45.0781Z" fill="black"/>
<path d="M40.2663 23.685C40.1712 23.4584 40.0547 23.2449 39.9192 23.0469H41.9531C43.9346 23.0469 45.5468 21.4347 45.5468 19.4531C45.5468 17.4715 43.9346 15.8594 41.9531 15.8594H35.6968C36.0946 15.2811 36.3281 14.5815 36.3281 13.8281C36.3281 11.8466 34.7159 10.2344 32.7343 10.2344H13.5937C11.6122 10.2344 10 11.8466 10 13.8281C10 15.8097 11.6122 17.4219 13.5937 17.4219H19.85C19.4522 18.0001 19.2187 18.6997 19.2187 19.4531C19.2187 20.2065 19.4522 20.9061 19.85 21.4844H17.8125C15.8309 21.4844 14.2187 23.0965 14.2187 25.0781C14.2187 26.2161 14.7511 27.2317 15.5793 27.8906C14.7511 28.5495 14.2187 29.565 14.2187 30.7031C14.2187 31.8411 14.7511 32.8567 15.5793 33.5156C14.7511 34.1745 14.2187 35.19 14.2187 36.3281C14.2187 37.4661 14.7511 38.4817 15.5793 39.1406C14.7511 39.7995 14.2187 40.815 14.2187 41.9531C14.2187 43.9346 15.8309 45.5468 17.8125 45.5468H27.0195C29.445 48.1411 32.8954 49.7656 36.7188 49.7656C44.042 49.7656 50 43.8077 50 36.4844C50 30.3893 45.8727 25.2408 40.2663 23.685ZM41.9531 17.4219C43.0731 17.4219 43.9843 18.3331 43.9843 19.4531C43.9843 20.5731 43.0731 21.4844 41.9531 21.4844H36.9531H22.8125C21.6924 21.4844 20.7812 20.5731 20.7812 19.4531C20.7812 18.3331 21.6924 17.4219 22.8125 17.4219H41.9531ZM13.5937 15.8594C12.4737 15.8594 11.5625 14.9481 11.5625 13.8281C11.5625 12.7081 12.4737 11.7969 13.5937 11.7969H32.7343C33.8544 11.7969 34.7656 12.7081 34.7656 13.8281C34.7656 14.9481 33.8544 15.8594 32.7343 15.8594H13.5937ZM17.8125 23.0469H36.9531C37.2678 23.0469 37.5691 23.12 37.8394 23.2509C37.4699 23.2199 37.0963 23.2032 36.7188 23.2032C33.0512 23.2032 29.7262 24.6976 27.3204 27.1093H17.8125C16.6925 27.1093 15.7812 26.1981 15.7812 25.0781C15.7812 23.9581 16.6925 23.0469 17.8125 23.0469ZM17.8125 28.6718H25.9855C25.0986 29.8869 24.4129 31.2574 23.9775 32.7343H17.8125C16.6924 32.7343 15.7812 31.8232 15.7812 30.7031C15.7812 29.5831 16.6924 28.6718 17.8125 28.6718ZM17.8125 34.2968H23.6187C23.5002 35.0088 23.4376 35.7393 23.4376 36.4844C23.4376 37.1208 23.4836 37.7466 23.5705 38.3593H17.8125C16.6924 38.3593 15.7812 37.4482 15.7812 36.3281C15.7812 35.208 16.6924 34.2968 17.8125 34.2968ZM17.8125 43.9843C16.6924 43.9843 15.7812 43.0731 15.7812 41.9531C15.7812 40.833 16.6924 39.9218 17.8125 39.9218H23.8895C24.2837 41.3916 24.9241 42.7613 25.764 43.9843H17.8125ZM36.7188 48.2031C30.2571 48.2031 25 42.9461 25 36.4844C25 30.0227 30.2571 24.7657 36.7188 24.7657C43.1805 24.7657 48.4375 30.0227 48.4375 36.4844C48.4375 42.9461 43.1805 48.2031 36.7188 48.2031Z" fill="black"/>
</svg>
